STARTFONT 2.1
COMMENT This font image translated from Metafont
COMMENT Input file was ``bnr10''
COMMENT DPI was ``150'', usermag ``1000'', blackness ``3''
COMMENT shrink was 1
FONT -*-bengali2-medium-r-*-*-*-150-*-*-*-*-iso10646-1
SIZE 10 150 150
FONTBOUNDINGBOX 38 26 -12 -6
STARTPROPERTIES 5
FONT_ASCENT 20
FONT_DESCENT 4
COPYRIGHT "GNU General Public License"
DEFAULT_CHAR 319
_XMBDFED_INFO "Edited with xmbdfed 4.5."
ENDPROPERTIES
CHARS 249
STARTCHAR C257
ENCODING 257
SWIDTH 480 0
DWIDTH 10 0
BBX 13 20 -2 -1
BITMAP
8000
8000
7F00
00C0
0020
0020
3FF8
0200
07C0
0C20
0020
0020
0020
1040
0F80
0200
0100
00C0
0020
0010
ENDCHAR
STARTCHAR C258
ENCODING 258
SWIDTH 576 0
DWIDTH 12 0
BBX 14 19 -1 0
BITMAP
8000
4000
3FC0
0020
0010
0010
7FFC
1000
3C00
3A10
3970
01A0
0120
0220
0C20
3020
0020
0020
0020
ENDCHAR
STARTCHAR C259
ENCODING 259
SWIDTH 576 0
DWIDTH 12 0
BBX 15 18 -2 1
BITMAP
8000
8000
7FC0
0030
0008
0008
3FFE
1080
1080
1080
1098
10A8
08C4
0804
0804
0404
0208
01F0
ENDCHAR
STARTCHAR C260
ENCODING 260
SWIDTH 624 0
DWIDTH 13 0
BBX 15 18 -1 1
BITMAP
8000
4000
3FC0
0030
0008
0008
7FFE
0880
2880
2880
2888
28B4
24C4
1404
1404
0A04
0508
03F0
ENDCHAR
STARTCHAR C261
ENCODING 261
SWIDTH 720 0
DWIDTH 15 0
BBX 13 13 1 0
BITMAP
E688
E988
7388
0C88
1088
2088
6088
1888
04C8
02A8
0198
0188
0080
ENDCHAR
STARTCHAR C262
ENCODING 262
SWIDTH 624 0
DWIDTH 13 0
BBX 11 13 1 0
BITMAP
01C0
0220
0420
0820
4E20
8E20
8E20
8020
8020
4020
3FE0
0020
0020
ENDCHAR
STARTCHAR C263
ENCODING 263
SWIDTH 768 0
DWIDTH 16 0
BBX 15 20 1 0
BITMAP
0400
0800
0800
0800
0700
00F8
0004
01C2
0222
0422
0824
4E38
8E20
8620
8020
8020
4020
3FE0
0020
0020
ENDCHAR
STARTCHAR C264
ENCODING 264
SWIDTH 576 0
DWIDTH 12 0
BBX 10 12 1 1
BITMAP
0F80
9040
B840
B840
8780
8700
4780
4040
4040
2040
1080
0F00
ENDCHAR
STARTCHAR C270
ENCODING 270
SWIDTH 288 0
DWIDTH 6 0
BBX 7 13 0 0
BITMAP
FE
10
10
10
20
10
10
10
10
10
10
10
60
ENDCHAR
STARTCHAR C271
ENCODING 271
SWIDTH 0 0
DWIDTH 0 0
BBX 11 5 -12 -2
BITMAP
8000
8020
4020
3FE0
0020
ENDCHAR
STARTCHAR C272
ENCODING 272
SWIDTH 576 0
DWIDTH 12 0
BBX 13 15 0 -2
BITMAP
FFF8
0C20
0C20
0A20
71C0
07C0
0C20
0020
0020
0840
0780
0180
0040
0020
0010
ENDCHAR
STARTCHAR C273
ENCODING 273
SWIDTH 624 0
DWIDTH 13 0
BBX 14 13 0 0
BITMAP
FFFC
0410
0A10
0910
70F0
0010
0010
0010
3F10
3CD0
3C30
0010
0010
ENDCHAR
STARTCHAR C274
ENCODING 274
SWIDTH 1152 0
DWIDTH 24 0
BBX 25 14 0 0
BITMAP
00000200
FFE3E380
061C1200
0A1E1A00
09116600
30E18200
00010200
00020200
00000200
00000200
00000200
00000200
00000200
00000200
ENDCHAR
STARTCHAR C275
ENCODING 275
SWIDTH 1152 0
DWIDTH 24 0
BBX 25 14 0 0
BITMAP
00000200
FFE3E380
061C1200
0A1E1A00
09116600
30E18200
00010200
00020200
0003DA00
00042600
00072600
00070200
00030200
00000200
ENDCHAR
STARTCHAR C276
ENCODING 276
SWIDTH 1008 0
DWIDTH 21 0
BBX 22 13 0 0
BITMAP
FFFFFC
0C2000
0C20C0
0A30A0
31C890
000890
0010B0
0020B0
0030B0
000C80
000280
000180
000080
ENDCHAR
STARTCHAR C277
ENCODING 277
SWIDTH 624 0
DWIDTH 13 0
BBX 14 13 0 0
BITMAP
FFFC
0410
0A10
0910
70E0
0010
00F0
0310
0C10
0310
0090
0050
0030
ENDCHAR
STARTCHAR C278
ENCODING 278
SWIDTH 768 0
DWIDTH 16 0
BBX 17 13 0 0
BITMAP
FFFF80
041200
0A1200
091200
70E200
002200
002200
00F200
00EA00
00E600
000600
000200
000200
ENDCHAR
STARTCHAR C279
ENCODING 279
SWIDTH 624 0
DWIDTH 13 0
BBX 14 13 0 0
BITMAP
FFFC
0410
0A10
0910
70F0
0010
0010
1ED0
2130
3930
3810
1810
0010
ENDCHAR
STARTCHAR C280
ENCODING 280
SWIDTH 480 0
DWIDTH 10 0
BBX 11 15 0 -2
BITMAP
FFE0
0E00
1900
3100
0100
0200
3C00
0800
0600
1D00
2380
7100
3100
0100
0100
ENDCHAR
STARTCHAR C281
ENCODING 281
SWIDTH 768 0
DWIDTH 16 0
BBX 17 13 0 0
BITMAP
FFFF80
004000
00DC00
025E00
085E00
104200
604400
187800
044000
024000
0D4000
0CC000
004000
ENDCHAR
STARTCHAR C282
ENCODING 282
SWIDTH 720 0
DWIDTH 15 0
BBX 16 13 0 0
BITMAP
FFFF
0040
00C0
0258
0864
1044
6044
1844
0448
0348
0CC4
0CC4
0040
ENDCHAR
STARTCHAR C283
ENCODING 283
SWIDTH 576 0
DWIDTH 12 0
BBX 13 14 0 -1
BITMAP
FFF8
1C00
22C0
3320
3120
3020
0040
0180
3E00
0C00
0200
0180
0040
0030
ENDCHAR
STARTCHAR C284
ENCODING 284
SWIDTH 672 0
DWIDTH 14 0
BBX 15 14 0 -1
BITMAP
FFFE
0800
1F80
3070
0048
0048
0048
0088
3F08
0C08
0208
0108
0088
0060
ENDCHAR
STARTCHAR C285
ENCODING 285
SWIDTH 720 0
DWIDTH 15 0
BBX 13 13 1 0
BITMAP
0F20
90E0
B850
8410
8410
88F0
48E0
40F0
2008
2008
1008
0C10
03E0
ENDCHAR
STARTCHAR C286
ENCODING 286
SWIDTH 720 0
DWIDTH 15 0
BBX 13 13 1 0
BITMAP
E320
9CE0
9C50
BE10
B610
80F0
40E0
40F0
2008
2008
1008
0C10
03E0
ENDCHAR
STARTCHAR C287
ENCODING 287
SWIDTH 624 0
DWIDTH 13 0
BBX 14 13 0 0
BITMAP
FFFC
1000
1E60
3190
0170
0170
0270
3C00
1800
0400
0200
0100
0080
ENDCHAR
STARTCHAR C288
ENCODING 288
SWIDTH 384 0
DWIDTH 8 0
BBX 0 0 0 0
BITMAP
ENDCHAR
STARTCHAR C289
ENCODING 289
SWIDTH 576 0
DWIDTH 12 0
BBX 2 17 8 -2
BITMAP
C0
C0
C0
C0
C0
C0
C0
C0
C0
C0
C0
C0
C0
00
00
C0
C0
ENDCHAR
STARTCHAR C290
ENCODING 290
SWIDTH 432 0
DWIDTH 9 0
BBX 7 8 1 10
BITMAP
EE
EE
EE
FE
22
24
44
88
ENDCHAR
STARTCHAR C291
ENCODING 291
SWIDTH 528 0
DWIDTH 11 0
BBX 9 16 1 -3
BITMAP
0900
0900
0A00
1200
1200
1200
FF80
1400
1400
FF80
2400
2400
2400
2800
4800
4800
ENDCHAR
STARTCHAR C292
ENCODING 292
SWIDTH 624 0
DWIDTH 13 0
BBX 10 18 2 -1
BITMAP
0400
0800
0800
0800
0800
1000
1000
1000
2000
27C0
2000
4000
4000
4000
4000
8000
8000
8000
ENDCHAR
STARTCHAR C293
ENCODING 293
SWIDTH 720 0
DWIDTH 15 0
BBX 13 20 1 -2
BITMAP
2000
5830
8FE0
8820
8840
8840
8880
8900
5100
2200
0220
0450
0488
0888
0888
1088
1088
2088
4050
4020
ENDCHAR
STARTCHAR C294
ENCODING 294
SWIDTH 480 0
DWIDTH 10 0
BBX 10 16 1 -2
BITMAP
3900
65C0
C500
0500
8900
7100
1100
0900
0700
0300
0D00
3100
0900
0500
0300
0100
ENDCHAR
STARTCHAR C295
ENCODING 295
SWIDTH 288 0
DWIDTH 6 0
BBX 4 7 1 10
BITMAP
F0
F0
F0
10
20
20
40
ENDCHAR
STARTCHAR C296
ENCODING 296
SWIDTH 288 0
DWIDTH 6 0
BBX 5 21 1 -4
BITMAP
18
10
30
20
60
60
40
C0
C0
C0
C0
C0
C0
C0
C0
60
60
20
30
10
18
ENDCHAR
STARTCHAR C297
ENCODING 297
SWIDTH 288 0
DWIDTH 6 0
BBX 5 21 0 -4
BITMAP
C0
40
60
20
30
30
10
18
18
18
18
18
18
18
18
30
30
20
60
40
C0
ENDCHAR
STARTCHAR C298
ENCODING 298
SWIDTH 480 0
DWIDTH 10 0
BBX 8 10 1 7
BITMAP
08
08
4A
2C
18
18
6E
89
08
08
ENDCHAR
STARTCHAR C299
ENCODING 299
SWIDTH 672 0
DWIDTH 14 0
BBX 12 13 1 0
BITMAP
0200
0200
0200
0200
0200
0200
FFF0
0200
0200
0200
0200
0200
0200
ENDCHAR
STARTCHAR C300
ENCODING 300
SWIDTH 336 0
DWIDTH 7 0
BBX 4 7 2 -4
BITMAP
F0
F0
F0
10
10
20
40
ENDCHAR
STARTCHAR C301
ENCODING 301
SWIDTH 336 0
DWIDTH 7 0
BBX 7 2 0 5
BITMAP
FE
FE
ENDCHAR
STARTCHAR C302
ENCODING 302
SWIDTH 480 0
DWIDTH 10 0
BBX 1 13 8 0
BITMAP
80
80
80
80
80
80
80
80
80
80
80
80
80
ENDCHAR
STARTCHAR C303
ENCODING 303
SWIDTH 288 0
DWIDTH 6 0
BBX 6 16 0 -3
BITMAP
04
08
08
08
08
10
10
10
20
20
20
40
40
40
40
80
ENDCHAR
STARTCHAR C304
ENCODING 304
SWIDTH 528 0
DWIDTH 11 0
BBX 9 9 1 2
BITMAP
3E00
4100
8080
8080
8080
8080
8080
4100
3E00
ENDCHAR
STARTCHAR C305
ENCODING 305
SWIDTH 528 0
DWIDTH 11 0
BBX 8 12 2 1
BITMAP
80
80
80
40
30
0C
02
01
01
01
7A
7C
ENDCHAR
STARTCHAR C306
ENCODING 306
SWIDTH 528 0
DWIDTH 11 0
BBX 8 14 2 -1
BITMAP
80
40
30
0C
02
02
04
F8
C0
30
18
04
02
01
ENDCHAR
STARTCHAR C307
ENCODING 307
SWIDTH 528 0
DWIDTH 11 0
BBX 9 10 1 1
BITMAP
8000
8E00
9F00
9E80
8C80
4080
4080
2080
1100
0E00
ENDCHAR
STARTCHAR C308
ENCODING 308
SWIDTH 528 0
DWIDTH 11 0
BBX 9 13 1 0
BITMAP
3E00
4100
8080
8080
8080
6300
1C00
6300
8080
8080
8080
4100
3E00
ENDCHAR
STARTCHAR C309
ENCODING 309
SWIDTH 528 0
DWIDTH 11 0
BBX 10 13 0 0
BITMAP
0C00
1400
2200
41C0
4080
8100
8100
8200
8200
8200
4200
3100
0F80
ENDCHAR
STARTCHAR C310
ENCODING 310
SWIDTH 528 0
DWIDTH 11 0
BBX 9 11 1 1
BITMAP
1000
9000
8800
8900
8A80
8C80
8080
4080
4080
2100
1E00
ENDCHAR
STARTCHAR C311
ENCODING 311
SWIDTH 528 0
DWIDTH 11 0
BBX 9 13 1 0
BITMAP
3C00
4200
8100
8100
C300
3D00
0100
0100
0100
0100
0100
0100
0080
ENDCHAR
STARTCHAR C312
ENCODING 312
SWIDTH 528 0
DWIDTH 11 0
BBX 9 12 1 1
BITMAP
8000
8000
8000
8000
8080
FF80
8200
8200
8200
8400
8800
7000
ENDCHAR
STARTCHAR C313
ENCODING 313
SWIDTH 528 0
DWIDTH 11 0
BBX 9 13 1 0
BITMAP
8000
8000
4000
2000
1800
0400
0200
0100
3880
4480
E480
E280
E300
ENDCHAR
STARTCHAR C314
ENCODING 314
SWIDTH 384 0
DWIDTH 8 0
BBX 4 10 3 1
BITMAP
F0
F0
F0
00
00
00
00
F0
F0
F0
ENDCHAR
STARTCHAR C315
ENCODING 315
SWIDTH 336 0
DWIDTH 7 0
BBX 4 11 2 -4
BITMAP
F0
F0
F0
00
F0
F0
F0
10
10
20
40
ENDCHAR
STARTCHAR C316
ENCODING 316
SWIDTH 768 0
DWIDTH 16 0
BBX 6 13 8 0
BITMAP
84
84
84
84
84
84
84
84
84
84
84
84
84
ENDCHAR
STARTCHAR C317
ENCODING 317
SWIDTH 720 0
DWIDTH 15 0
BBX 13 6 1 3
BITMAP
FFF8
0000
0000
0000
0000
FFF8
ENDCHAR
STARTCHAR C318
ENCODING 318
SWIDTH 480 0
DWIDTH 10 0
BBX 11 15 0 -2
BITMAP
FFE0
0E00
1900
3100
0100
0200
3C00
0800
0600
0100
0780
1900
0500
0300
0100
ENDCHAR
STARTCHAR C319
ENCODING 319
SWIDTH 816 0
DWIDTH 17 0
BBX 8 16 8 -1
BITMAP
3C
42
E1
E1
E1
02
04
08
10
10
10
10
00
00
18
18
ENDCHAR
STARTCHAR C320
ENCODING 320
SWIDTH 672 0
DWIDTH 14 0
BBX 15 14 0 -1
BITMAP
FFFE
0200
2300
7B00
6738
03C8
0308
0108
0038
00C8
0188
0048
0028
0018
ENDCHAR
STARTCHAR C321
ENCODING 321
SWIDTH 288 0
DWIDTH 6 0
BBX 7 14 0 0
BITMAP
10
DE
30
30
10
10
10
10
10
10
10
10
10
10
ENDCHAR
STARTCHAR C322
ENCODING 322
SWIDTH 528 0
DWIDTH 11 0
BBX 9 13 1 0
BITMAP
3C00
6200
A200
9C00
8000
8000
4000
3000
0800
0600
0100
0080
0080
ENDCHAR
STARTCHAR C323
ENCODING 323
SWIDTH 528 0
DWIDTH 11 0
BBX 12 14 0 -1
BITMAP
FFF0
4000
7000
4F80
4440
4840
7040
0080
0300
3C00
0600
0100
00C0
0020
ENDCHAR
STARTCHAR C324
ENCODING 324
SWIDTH 576 0
DWIDTH 12 0
BBX 13 12 0 1
BITMAP
FFF8
4200
4200
4200
4260
42A0
2310
2010
2010
1010
0820
07C0
ENDCHAR
STARTCHAR C325
ENCODING 325
SWIDTH 336 0
DWIDTH 7 0
BBX 11 20 -3 -1
BITMAP
8000
8000
7E00
0180
0040
0040
1FE0
0100
0200
0400
0400
0800
0800
0800
0800
0800
0400
0460
0360
00C0
ENDCHAR
STARTCHAR C326
ENCODING 326
SWIDTH 528 0
DWIDTH 11 0
BBX 12 13 0 0
BITMAP
FFF0
3040
0840
0440
0A40
1140
20C0
7040
0C40
0240
0140
00C0
00C0
ENDCHAR
STARTCHAR C327
ENCODING 327
SWIDTH 576 0
DWIDTH 12 0
BBX 13 13 0 0
BITMAP
FFF8
4020
4020
4020
3E20
0420
0820
3820
0620
0120
00A0
0060
0060
ENDCHAR
STARTCHAR C328
ENCODING 328
SWIDTH 336 0
DWIDTH 7 0
BBX 5 12 1 1
BITMAP
70
88
88
70
00
00
00
70
88
88
88
70
ENDCHAR
STARTCHAR C329
ENCODING 329
SWIDTH 240 0
DWIDTH 5 0
BBX 16 20 -10 0
BITMAP
7F80
8060
8010
8008
7E08
0184
0044
001F
0004
0004
0004
0004
0004
0004
0004
0004
0004
0004
0004
0004
ENDCHAR
STARTCHAR C330
ENCODING 330
SWIDTH 672 0
DWIDTH 14 0
BBX 15 14 0 0
BITMAP
0008
FF8E
0088
0388
0488
1888
2088
2088
1888
04C8
02A8
0198
0188
0080
ENDCHAR
STARTCHAR C331
ENCODING 331
SWIDTH 624 0
DWIDTH 13 0
BBX 13 14 1 0
BITMAP
0020
0C38
D220
E120
C120
0220
0C20
3020
1820
0620
0120
00A0
0060
0060
ENDCHAR
STARTCHAR C332
ENCODING 332
SWIDTH 768 0
DWIDTH 16 0
BBX 17 13 0 0
BITMAP
FFFF80
202000
7C2000
73FC00
712200
012200
012200
0E2400
0FA400
0E6400
002200
002200
002000
ENDCHAR
STARTCHAR C333
ENCODING 333
SWIDTH 384 0
DWIDTH 8 0
BBX 5 12 2 1
BITMAP
60
90
90
60
00
80
80
40
20
10
10
08
ENDCHAR
STARTCHAR C334
ENCODING 334
SWIDTH 528 0
DWIDTH 11 0
BBX 11 14 1 0
BITMAP
0080
3CE0
4280
8180
8080
B080
7080
0080
0080
0080
0080
0080
0080
0080
ENDCHAR
STARTCHAR C335
ENCODING 335
SWIDTH 240 0
DWIDTH 5 0
BBX 16 19 -10 0
BITMAP
8000
4000
3FE0
0018
0004
0004
001F
0004
0004
0004
0004
0004
0004
0004
0004
0004
0004
0004
0004
ENDCHAR
STARTCHAR C336
ENCODING 336
SWIDTH 816 0
DWIDTH 17 0
BBX 15 14 1 0
BITMAP
0080
789C
C4A2
C4C2
0482
088C
108C
6082
18C2
04A2
029C
0180
0180
0080
ENDCHAR
STARTCHAR C337
ENCODING 337
SWIDTH 912 0
DWIDTH 19 0
BBX 17 13 1 0
BITMAP
01C000
022000
042700
082880
4E3080
8E2780
862700
802780
803080
402880
3FE700
002000
002000
ENDCHAR
STARTCHAR C338
ENCODING 338
SWIDTH 576 0
DWIDTH 12 0
BBX 13 16 0 -3
BITMAP
FFF8
4200
4200
4200
4260
42A0
2310
2010
2010
1010
0820
07C0
0000
0300
0300
0300
ENDCHAR
STARTCHAR C339
ENCODING 339
SWIDTH 576 0
DWIDTH 12 0
BBX 13 14 0 0
BITMAP
0020
C738
28A0
1860
3C20
7E20
6620
0020
0020
0020
0020
0020
0020
0020
ENDCHAR
STARTCHAR C340
ENCODING 340
SWIDTH 480 0
DWIDTH 10 0
BBX 13 19 -2 0
BITMAP
8000
8000
7F00
00C0
0020
0020
3FF8
0800
0800
0800
0800
08E0
08E0
0820
0840
0840
0880
0900
0600
ENDCHAR
STARTCHAR C341
ENCODING 341
SWIDTH 0 0
DWIDTH 0 0
BBX 10 7 -6 -6
BITMAP
7800
8000
8000
8800
7600
0100
00C0
ENDCHAR
STARTCHAR C342
ENCODING 342
SWIDTH 480 0
DWIDTH 10 0
BBX 11 16 0 -3
BITMAP
FFE0
2000
2000
2000
2000
2380
2380
2080
2100
2100
2200
2400
1800
1800
1800
1800
ENDCHAR
STARTCHAR C343
ENCODING 343
SWIDTH 0 0
DWIDTH 0 0
BBX 5 4 -5 -4
BITMAP
20
C0
60
18
ENDCHAR
STARTCHAR C344
ENCODING 344
SWIDTH 480 0
DWIDTH 10 0
BBX 11 13 0 0
BITMAP
FFE0
2000
2000
2000
2000
2380
2380
2080
2100
2100
2200
2400
1800
ENDCHAR
STARTCHAR C345
ENCODING 345
SWIDTH 528 0
DWIDTH 11 0
BBX 12 13 0 0
BITMAP
FFF0
3040
0840
0440
0840
1040
2040
7040
0C40
0240
0140
00C0
00C0
ENDCHAR
STARTCHAR C346
ENCODING 346
SWIDTH 480 0
DWIDTH 10 0
BBX 11 19 0 1
BITMAP
1000
1000
1000
0800
0800
0400
0400
FFE0
0600
0500
0500
0480
0480
0880
1080
6100
4100
2200
1C00
ENDCHAR
STARTCHAR C347
ENCODING 347
SWIDTH 192 0
DWIDTH 4 0
BBX 4 22 1 -4
BITMAP
F0
F0
C0
C0
C0
C0
C0
C0
C0
C0
C0
C0
C0
C0
C0
C0
C0
C0
C0
C0
F0
F0
ENDCHAR
STARTCHAR C348
ENCODING 348
SWIDTH 432 0
DWIDTH 9 0
BBX 7 7 1 10
BITMAP
24
44
48
88
FE
EE
EE
ENDCHAR
STARTCHAR C349
ENCODING 349
SWIDTH 192 0
DWIDTH 4 0
BBX 3 22 0 -4
BITMAP
E0
E0
E0
60
60
60
60
60
60
60
60
60
60
60
60
60
60
60
60
60
E0
E0
ENDCHAR
STARTCHAR C350
ENCODING 350
SWIDTH 0 0
DWIDTH 0 0
BBX 8 5 -3 14
BITMAP
01
06
18
20
C0
ENDCHAR
STARTCHAR C351
ENCODING 351
SWIDTH 0 0
DWIDTH 0 0
BBX 4 3 -2 -5
BITMAP
80
60
10
ENDCHAR
STARTCHAR C352
ENCODING 352
SWIDTH 288 0
DWIDTH 6 0
BBX 4 7 1 10
BITMAP
20
40
80
80
F0
F0
F0
ENDCHAR
STARTCHAR C353
ENCODING 353
SWIDTH 816 0
DWIDTH 17 0
BBX 18 13 0 0
BITMAP
FFFFC0
040100
47C100
472100
271100
201100
101100
101100
081900
042900
03C500
000300
000300
ENDCHAR
STARTCHAR C354
ENCODING 354
SWIDTH 528 0
DWIDTH 11 0
BBX 12 13 0 0
BITMAP
FFF0
0040
01C0
0640
1840
2040
6040
1040
0C40
0240
0140
00C0
0040
ENDCHAR
STARTCHAR C355
ENCODING 355
SWIDTH 480 0
DWIDTH 10 0
BBX 11 13 0 0
BITMAP
FFE0
2000
2000
3000
2C00
2380
2080
2080
2100
2100
2200
2400
1800
ENDCHAR
STARTCHAR C356
ENCODING 356
SWIDTH 480 0
DWIDTH 10 0
BBX 11 13 0 0
BITMAP
FFE0
4000
4000
4180
4680
4900
5100
6100
0100
0100
0100
0100
0100
ENDCHAR
STARTCHAR C357
ENCODING 357
SWIDTH 336 0
DWIDTH 7 0
BBX 8 14 0 -1
BITMAP
FF
08
10
20
20
40
40
40
40
40
20
23
1B
06
ENDCHAR
STARTCHAR C358
ENCODING 358
SWIDTH 672 0
DWIDTH 14 0
BBX 15 13 0 0
BITMAP
FFFE
3000
0860
0450
0848
1078
1078
3078
0C40
0240
0140
00C0
00C0
ENDCHAR
STARTCHAR C359
ENCODING 359
SWIDTH 576 0
DWIDTH 12 0
BBX 12 14 1 0
BITMAP
0040
3E70
4140
80C0
F8C0
8440
0440
0840
0840
1040
0040
0040
0040
0040
ENDCHAR
STARTCHAR C360
ENCODING 360
SWIDTH 480 0
DWIDTH 10 0
BBX 11 14 0 -1
BITMAP
FFE0
0800
1F00
3080
0080
0080
0080
4100
3E00
0800
0400
0300
0080
0040
ENDCHAR
STARTCHAR C361
ENCODING 361
SWIDTH 288 0
DWIDTH 6 0
BBX 14 20 0 0
BITMAP
1F80
2060
4010
4008
4004
4000
2000
FE00
1000
1000
1000
1000
1000
1000
1000
1000
1000
1000
1000
1000
ENDCHAR
STARTCHAR C362
ENCODING 362
SWIDTH 720 0
DWIDTH 15 0
BBX 16 13 0 0
BITMAP
FFFF
0600
4900
50F8
5008
50C8
2F28
2028
1028
0848
0788
0004
0004
ENDCHAR
STARTCHAR C363
ENCODING 363
SWIDTH 720 0
DWIDTH 15 0
BBX 16 13 0 0
BITMAP
FFFF
0040
01F0
0658
084C
3044
6044
185C
0458
0240
0140
00C0
0040
ENDCHAR
STARTCHAR C364
ENCODING 364
SWIDTH 624 0
DWIDTH 13 0
BBX 14 13 0 0
BITMAP
FFFC
0010
0010
1CD0
2330
4130
4110
5C10
3C10
0010
0010
0010
0010
ENDCHAR
STARTCHAR C365
ENCODING 365
SWIDTH 528 0
DWIDTH 11 0
BBX 12 13 0 0
BITMAP
FFF0
4040
4040
2040
1040
0840
0440
3C40
3E40
3D40
00C0
00C0
0040
ENDCHAR
STARTCHAR C366
ENCODING 366
SWIDTH 528 0
DWIDTH 11 0
BBX 12 13 0 0
BITMAP
FFF0
0040
0040
0040
0040
7C40
7A40
7940
00C0
00C0
0040
0040
0040
ENDCHAR
STARTCHAR C367
ENCODING 367
SWIDTH 672 0
DWIDTH 14 0
BBX 12 19 1 1
BITMAP
0800
1000
1000
1000
0F00
00E0
0010
0F90
9050
B850
B860
83C0
8380
4380
4040
4040
2040
1080
0F00
ENDCHAR
STARTCHAR C368
ENCODING 368
SWIDTH 576 0
DWIDTH 12 0
BBX 12 14 1 0
BITMAP
0040
3C70
4240
E140
12C0
1C40
1040
2040
0040
0040
0040
0040
0040
0040
ENDCHAR
STARTCHAR C369
ENCODING 369
SWIDTH 624 0
DWIDTH 13 0
BBX 11 13 1 1
BITMAP
0380
4440
A8C0
9F00
8800
8840
88A0
4720
4020
4020
2020
1040
0F80
ENDCHAR
STARTCHAR C370
ENCODING 370
SWIDTH 528 0
DWIDTH 11 0
BBX 12 13 0 0
BITMAP
FFF0
0040
01C0
0640
1840
2040
6040
1040
0C40
0240
0140
1CC0
1C40
ENDCHAR
STARTCHAR C371
ENCODING 371
SWIDTH 576 0
DWIDTH 12 0
BBX 13 13 0 0
BITMAP
FFF8
1020
0820
0820
07A0
0460
0460
2820
3020
0020
0020
0020
0020
ENDCHAR
STARTCHAR C372
ENCODING 372
SWIDTH 576 0
DWIDTH 12 0
BBX 13 12 0 1
BITMAP
FFF8
0000
8000
4780
4740
4720
2020
2020
2020
1020
0840
0780
ENDCHAR
STARTCHAR C373
ENCODING 373
SWIDTH 0 0
DWIDTH 0 0
BBX 9 6 -6 -6
BITMAP
7800
8800
8C00
7200
0100
0080
ENDCHAR
STARTCHAR C374
ENCODING 374
SWIDTH 624 0
DWIDTH 13 0
BBX 14 12 0 1
BITMAP
FFFC
0000
8000
4F00
4F20
4F60
4390
2010
2010
1010
0820
07C0
ENDCHAR
STARTCHAR C375
ENCODING 375
SWIDTH 0 0
DWIDTH 0 0
BBX 8 5 -6 15
BITMAP
18
99
81
42
3C
ENDCHAR
STARTCHAR C376
ENCODING 376
SWIDTH 528 0
DWIDTH 11 0
BBX 11 14 1 0
BITMAP
3000
70E0
4080
4380
3C80
1080
6080
C080
3080
0880
0480
0280
0180
0080
ENDCHAR
STARTCHAR C377
ENCODING 377
SWIDTH 528 0
DWIDTH 11 0
BBX 12 13 0 0
BITMAP
FFF0
3040
0840
0440
0840
1040
2040
7040
0C40
0240
0140
0CC0
0CC0
ENDCHAR
STARTCHAR C378
ENCODING 378
SWIDTH 576 0
DWIDTH 12 0
BBX 12 14 1 0
BITMAP
0040
7C70
C240
C240
0240
0440
1840
7040
0C40
0240
0140
00C0
0040
0040
ENDCHAR
STARTCHAR C379
ENCODING 379
SWIDTH 576 0
DWIDTH 12 0
BBX 13 1 0 6
BITMAP
FFF8
ENDCHAR
STARTCHAR C380
ENCODING 380
SWIDTH 1104 0
DWIDTH 23 0
BBX 24 1 0 6
BITMAP
FFFFFF
ENDCHAR
STARTCHAR C381
ENCODING 381
SWIDTH 480 0
DWIDTH 10 0
BBX 11 15 0 -2
BITMAP
FFE0
0E00
1900
3100
0100
0200
3C00
0800
0600
0180
3A80
7580
7080
3080
0080
ENDCHAR
STARTCHAR C382
ENCODING 382
SWIDTH 624 0
DWIDTH 13 0
BBX 11 5 1 4
BITMAP
3000
7C00
8E20
03E0
01C0
ENDCHAR
STARTCHAR C383
ENCODING 383
SWIDTH 960 0
DWIDTH 20 0
BBX 21 17 0 -3
BITMAP
000020
FFFF38
0210A0
022060
023860
026420
02A420
431420
201820
201020
101020
082020
07C020
000020
038000
038000
038000
ENDCHAR
STARTCHAR C384
ENCODING 384
SWIDTH 720 0
DWIDTH 15 0
BBX 16 13 0 0
BITMAP
FFFF
00F0
0348
0C44
305C
21FC
1650
0848
1848
0658
0158
00C0
0040
ENDCHAR
STARTCHAR C385
ENCODING 385
SWIDTH 528 0
DWIDTH 11 0
BBX 12 19 0 0
BITMAP
8000
6000
1E00
0180
0040
0040
FFF0
0700
1A80
2280
6380
1B80
0600
0200
0780
09C0
11C0
1080
0F00
ENDCHAR
STARTCHAR C386
ENCODING 386
SWIDTH 768 0
DWIDTH 16 0
BBX 17 12 0 1
BITMAP
FFFF80
07C000
082000
503C00
582200
5BCE00
23CE00
23AE00
202000
102000
084000
078000
ENDCHAR
STARTCHAR C387
ENCODING 387
SWIDTH 720 0
DWIDTH 15 0
BBX 16 13 0 0
BITMAP
FFFF
00F0
0348
0C44
3044
21DC
165C
0840
1840
0640
0140
00C0
0040
ENDCHAR
STARTCHAR C388
ENCODING 388
SWIDTH 672 0
DWIDTH 14 0
BBX 15 13 0 0
BITMAP
FFFE
0308
0E88
3248
62C8
1AC8
0608
0208
0788
07E8
0798
0008
0008
ENDCHAR
STARTCHAR C389
ENCODING 389
SWIDTH 816 0
DWIDTH 17 0
BBX 18 13 0 0
BITMAP
FFFFC0
01C000
022000
042E00
043100
472700
472700
472700
402000
402000
202000
1FE000
002000
ENDCHAR
STARTCHAR C390
ENCODING 390
SWIDTH 624 0
DWIDTH 13 0
BBX 14 13 0 0
BITMAP
FFFC
01C0
06A0
1890
18F0
06F0
0180
0080
3B80
4580
7480
7080
0080
ENDCHAR
STARTCHAR C391
ENCODING 391
SWIDTH 816 0
DWIDTH 17 0
BBX 18 13 0 0
BITMAP
FFFFC0
212000
792000
74FC00
722200
022100
022700
0E2600
0FA600
0E6000
002000
002000
002000
ENDCHAR
STARTCHAR C392
ENCODING 392
SWIDTH 768 0
DWIDTH 16 0
BBX 17 15 0 -2
BITMAP
FFFF80
222000
792000
74F800
722400
022E00
0E2E00
0F2C00
0EA000
006000
1FE000
1C6000
1C2000
002000
002000
ENDCHAR
STARTCHAR C393
ENCODING 393
SWIDTH 864 0
DWIDTH 18 0
BBX 19 16 0 -3
BITMAP
FFFFE0
212080
792080
74FC80
722280
022E80
0E2E80
0FAE80
0E6080
002080
01F080
01EC80
01C280
000180
000080
000080
ENDCHAR
STARTCHAR C394
ENCODING 394
SWIDTH 672 0
DWIDTH 14 0
BBX 15 13 0 0
BITMAP
FFFE
0308
0E88
3248
62C8
1AC8
0608
02E8
0318
2208
1C08
0008
0008
ENDCHAR
STARTCHAR C395
ENCODING 395
SWIDTH 624 0
DWIDTH 13 0
BBX 13 14 1 0
BITMAP
0080
3CF8
4280
F180
8880
0880
0880
10C0
03A0
0CA0
1CA0
02A0
01A0
01A0
ENDCHAR
STARTCHAR C396
ENCODING 396
SWIDTH 576 0
DWIDTH 12 0
BBX 12 14 1 0
BITMAP
0040
3E70
4140
F0C0
8840
0840
0840
1040
0040
7E40
7140
70C0
0040
0040
ENDCHAR
STARTCHAR C397
ENCODING 397
SWIDTH 576 0
DWIDTH 12 0
BBX 12 14 1 0
BITMAP
0040
3E70
4140
F0C0
8840
0840
0840
1040
01C0
0640
0C40
0240
01C0
00C0
ENDCHAR
STARTCHAR C398
ENCODING 398
SWIDTH 720 0
DWIDTH 15 0
BBX 15 14 1 0
BITMAP
0040
3E7E
4148
F0C8
8848
0848
0848
1048
0048
01C8
01E8
01D8
0008
0008
ENDCHAR
STARTCHAR C399
ENCODING 399
SWIDTH 576 0
DWIDTH 12 0
BBX 12 14 1 0
BITMAP
0040
3E70
4140
F0C0
8840
0840
0840
0040
0040
7B40
84C0
E040
6040
0040
ENDCHAR
STARTCHAR C400
ENCODING 400
SWIDTH 528 0
DWIDTH 11 0
BBX 12 14 0 -1
BITMAP
FFF0
4040
4040
3E40
0840
1040
3840
0640
0140
1EC0
1D40
1CC0
0040
0040
ENDCHAR
STARTCHAR C401
ENCODING 401
SWIDTH 576 0
DWIDTH 12 0
BBX 13 13 0 0
BITMAP
FFF8
0110
7CE0
7200
7100
0180
0740
1920
3120
09E0
05E0
0300
0100
ENDCHAR
STARTCHAR C402
ENCODING 402
SWIDTH 1200 0
DWIDTH 25 0
BBX 25 14 1 0
BITMAP
06000000
49FFFF80
A9224000
9E7A4000
48F5F800
49F24400
4E424200
20424E00
204E4C00
108F4C00
0F0EC000
00004000
00004000
00004000
ENDCHAR
STARTCHAR C403
ENCODING 403
SWIDTH 816 0
DWIDTH 17 0
BBX 18 14 0 0
BITMAP
038100
F481C0
4F0100
240100
244100
24A100
173100
103100
085100
07A100
006100
001900
000500
000300
ENDCHAR
STARTCHAR C404
ENCODING 404
SWIDTH 576 0
DWIDTH 12 0
BBX 13 13 0 0
BITMAP
FFF8
2220
79C0
7460
72A0
0340
0240
0440
1840
6040
0040
0040
0040
ENDCHAR
STARTCHAR C405
ENCODING 405
SWIDTH 912 0
DWIDTH 19 0
BBX 19 14 1 0
BITMAP
060000
49FFE0
A98080
9E8080
888080
49F880
4E5080
406080
206080
109880
0F0480
000280
000180
000180
ENDCHAR
STARTCHAR C406
ENCODING 406
SWIDTH 624 0
DWIDTH 13 0
BBX 13 14 1 0
BITMAP
0600
49F8
BE20
9020
9120
92A0
5CA0
40A0
2120
1E20
0FA0
0E60
0E20
0020
ENDCHAR
STARTCHAR C407
ENCODING 407
SWIDTH 768 0
DWIDTH 16 0
BBX 17 13 0 0
BITMAP
FFFF80
210000
218000
3D4000
231800
230600
250200
250400
290400
110800
011000
012000
00C000
ENDCHAR
STARTCHAR C408
ENCODING 408
SWIDTH 768 0
DWIDTH 16 0
BBX 17 13 0 0
BITMAP
FFFF80
210000
218000
3D7C00
232200
232200
25C200
240C00
28F000
106000
001000
000800
000400
ENDCHAR
STARTCHAR C409
ENCODING 409
SWIDTH 720 0
DWIDTH 15 0
BBX 16 15 0 -2
BITMAP
FFFF
4100
6180
5F78
4324
4344
4598
48E0
30C0
0020
0018
0038
00C8
0028
0018
ENDCHAR
STARTCHAR C410
ENCODING 410
SWIDTH 624 0
DWIDTH 13 0
BBX 14 13 0 0
BITMAP
FFFC
3000
2E00
2200
2200
2660
1990
1170
5D60
4D10
4190
3D60
0300
ENDCHAR
STARTCHAR C411
ENCODING 411
SWIDTH 960 0
DWIDTH 20 0
BBX 21 13 0 0
BITMAP
FFFFF8
0C0000
53F800
501800
4F2400
2123C0
112240
0F1E40
008140
008140
004140
003E40
000040
ENDCHAR
STARTCHAR C412
ENCODING 412
SWIDTH 960 0
DWIDTH 20 0
BBX 21 16 0 -3
BITMAP
FFFFF8
0C0000
53F800
501800
4F2400
2123E0
112240
0F1E40
008140
008140
004140
003FC0
000240
000640
0001C0
000040
ENDCHAR
STARTCHAR C413
ENCODING 413
SWIDTH 1200 0
DWIDTH 25 0
BBX 26 14 0 0
BITMAP
00000100
FFFFF1C0
06001100
05003100
48F8D100
48111100
48961100
275C1100
20531100
10509900
08505500
07903500
00101300
00101100
ENDCHAR
STARTCHAR C414
ENCODING 414
SWIDTH 768 0
DWIDTH 16 0
BBX 17 11 0 2
BITMAP
FFFF80
060000
091C00
50A200
50C200
51CE00
2ECE00
204200
106200
085C00
078000
ENDCHAR
STARTCHAR C415
ENCODING 415
SWIDTH 720 0
DWIDTH 15 0
BBX 16 15 0 -2
BITMAP
FFFF
0A00
0A00
5188
5078
5188
2E88
2048
1048
0858
07E8
0088
0188
0068
0018
ENDCHAR
STARTCHAR C417
ENCODING 417
SWIDTH 576 0
DWIDTH 12 0
BBX 10 17 1 -3
BITMAP
0380
7440
C9C0
C980
1840
2440
4380
8600
8900
7100
0600
F800
3800
0600
0100
0080
0040
ENDCHAR
STARTCHAR C418
ENCODING 418
SWIDTH 672 0
DWIDTH 14 0
BBX 12 14 1 0
BITMAP
01E0
3A10
6470
6C60
7410
1310
A0E0
A020
9F20
40C0
40C0
20C0
1F40
0020
ENDCHAR
STARTCHAR C419
ENCODING 419
SWIDTH 624 0
DWIDTH 13 0
BBX 11 13 1 0
BITMAP
0EC0
1320
BAC0
9AE0
8320
7EC0
0280
0E80
3280
6280
1A80
0780
0280
ENDCHAR
STARTCHAR C420
ENCODING 420
SWIDTH 576 0
DWIDTH 12 0
BBX 13 21 0 -2
BITMAP
8000
6000
1F00
00C0
0020
0020
FFF8
1000
1000
1000
10E0
10E0
10E0
1040
1040
1080
5140
4E40
2040
1080
0F00
ENDCHAR
STARTCHAR C421
ENCODING 421
SWIDTH 480 0
DWIDTH 10 0
BBX 12 21 -1 -2
BITMAP
8000
6000
1E00
0180
0040
0040
7FF0
1000
1000
1000
11C0
11C0
1040
1080
1100
1200
0C80
0380
0680
0180
0080
ENDCHAR
STARTCHAR C422
ENCODING 422
SWIDTH 912 0
DWIDTH 19 0
BBX 20 12 0 1
BITMAP
FFFFF0
080800
080800
0B0800
4C8980
208A80
218C40
1E8040
008040
004040
002080
001F00
ENDCHAR
STARTCHAR C423
ENCODING 423
SWIDTH 768 0
DWIDTH 16 0
BBX 16 19 1 0
BITMAP
1000
0C00
03E0
0018
0004
0004
3BFF
4600
E200
E200
E200
021C
021C
0204
0208
0208
0210
0220
01C0
ENDCHAR
STARTCHAR C424
ENCODING 424
SWIDTH 624 0
DWIDTH 13 0
BBX 10 19 2 1
BITMAP
0800
0800
0800
0800
0800
0800
7400
8C00
C600
C500
0480
0440
0840
0840
1040
6040
4080
2100
1E00
ENDCHAR
STARTCHAR C425
ENCODING 425
SWIDTH 624 0
DWIDTH 13 0
BBX 11 13 1 0
BITMAP
3980
7540
F240
8040
8040
8380
8380
43C0
4020
2020
2020
1040
0F80
ENDCHAR
STARTCHAR C426
ENCODING 426
SWIDTH 528 0
DWIDTH 11 0
BBX 10 14 2 0
BITMAP
0100
79C0
8500
C300
C100
C100
0100
3900
4500
8300
C100
C100
0100
0100
ENDCHAR
STARTCHAR C427
ENCODING 427
SWIDTH 624 0
DWIDTH 13 0
BBX 13 14 1 0
BITMAP
0100
39F8
4520
E320
E120
E120
0120
0120
0720
07A0
0760
0060
0020
0020
ENDCHAR
STARTCHAR C428
ENCODING 428
SWIDTH 576 0
DWIDTH 12 0
BBX 13 12 0 1
BITMAP
FFF8
07C0
0820
5020
5820
3BC0
23C0
23A0
1020
1020
0840
0780
ENDCHAR
STARTCHAR C429
ENCODING 429
SWIDTH 528 0
DWIDTH 11 0
BBX 12 15 0 -2
BITMAP
FFF0
0780
0840
5840
5B80
2300
2380
2040
1040
0880
0780
0680
0180
0080
0080
ENDCHAR
STARTCHAR C430
ENCODING 430
SWIDTH 624 0
DWIDTH 13 0
BBX 13 14 1 0
BITMAP
0020
7638
ED20
ED20
0120
0220
0C20
3820
0620
0120
00A0
0060
0020
0020
ENDCHAR
STARTCHAR C431
ENCODING 431
SWIDTH 576 0
DWIDTH 12 0
BBX 13 13 0 0
BITMAP
FFF8
4380
43C0
23A0
2020
1020
0840
07C0
1E40
1D40
1CC0
0040
0040
ENDCHAR
STARTCHAR C432
ENCODING 432
SWIDTH 576 0
DWIDTH 12 0
BBX 13 13 0 0
BITMAP
FFF8
0380
43C0
23A0
2020
1020
0840
07C0
01C0
0640
0140
00C0
0040
ENDCHAR
STARTCHAR C433
ENCODING 433
SWIDTH 720 0
DWIDTH 15 0
BBX 16 13 0 0
BITMAP
FFFF
4384
43C4
23A4
1024
0824
0444
0384
03C4
03B4
038C
0004
0004
ENDCHAR
STARTCHAR C434
ENCODING 434
SWIDTH 672 0
DWIDTH 14 0
BBX 15 13 0 0
BITMAP
FFFE
00F0
0108
0208
0408
4788
4788
4388
4008
4008
2008
1FF8
0008
ENDCHAR
STARTCHAR C435
ENCODING 435
SWIDTH 816 0
DWIDTH 17 0
BBX 18 13 0 0
BITMAP
FFFFC0
01E000
021700
041780
041780
471080
471100
471E00
401000
401000
201000
1FF000
001000
ENDCHAR
STARTCHAR C436
ENCODING 436
SWIDTH 864 0
DWIDTH 18 0
BBX 19 15 0 -1
BITMAP
000080
FF78E0
408680
410180
41E180
471080
4A1080
521080
620080
420080
020080
020080
020080
020080
000080
ENDCHAR
STARTCHAR C437
ENCODING 437
SWIDTH 816 0
DWIDTH 17 0
BBX 18 13 0 0
BITMAP
FFFFC0
410100
410100
430100
45F100
4A2100
524100
62C100
423100
020900
020500
020300
020300
ENDCHAR
STARTCHAR C438
ENCODING 438
SWIDTH 576 0
DWIDTH 12 0
BBX 13 13 0 0
BITMAP
FFF8
4000
4C00
5400
6440
44C0
0540
0640
0440
0040
0040
0040
0040
ENDCHAR
STARTCHAR C439
ENCODING 439
SWIDTH 624 0
DWIDTH 13 0
BBX 14 13 0 0
BITMAP
FFFC
4000
4000
4300
4C80
70E0
4390
0C90
1890
0490
0290
0190
0090
ENDCHAR
STARTCHAR C440
ENCODING 440
SWIDTH 528 0
DWIDTH 11 0
BBX 12 13 0 0
BITMAP
FFF0
4000
4000
4180
4E40
7040
41C0
0640
1840
0640
0140
00C0
00C0
ENDCHAR
STARTCHAR C441
ENCODING 441
SWIDTH 624 0
DWIDTH 13 0
BBX 14 13 0 0
BITMAP
FFFC
2000
2600
2A00
3200
2200
4E00
4E60
2F90
2010
1010
0820
07C0
ENDCHAR
STARTCHAR C442
ENCODING 442
SWIDTH 624 0
DWIDTH 13 0
BBX 14 13 0 0
BITMAP
FFFC
2000
2600
2A00
3200
2200
0E20
2E50
2F90
2210
2010
1FF0
0010
ENDCHAR
STARTCHAR C443
ENCODING 443
SWIDTH 576 0
DWIDTH 12 0
BBX 13 13 0 0
BITMAP
FFF8
4020
4120
4720
4920
5220
6220
4220
0220
0FA0
0E60
0E20
0020
ENDCHAR
STARTCHAR C444
ENCODING 444
SWIDTH 480 0
DWIDTH 10 0
BBX 10 15 1 -1
BITMAP
3000
71C0
4300
3D00
3100
6100
1900
0500
0300
0300
F900
E500
E300
0100
0100
ENDCHAR
STARTCHAR C445
ENCODING 445
SWIDTH 912 0
DWIDTH 19 0
BBX 19 14 1 0
BITMAP
300000
70FFE0
408080
438380
3C8C80
109080
60E080
C0C080
30B080
088880
048480
028280
018180
008180
ENDCHAR
STARTCHAR C446
ENCODING 446
SWIDTH 768 0
DWIDTH 16 0
BBX 17 19 0 0
BITMAP
080000
060000
01F000
000C00
000200
000200
FFFF80
010000
010000
7D0000
730000
710E00
010E00
010200
010400
010400
010800
011000
00E000
ENDCHAR
STARTCHAR C447
ENCODING 447
SWIDTH 624 0
DWIDTH 13 0
BBX 14 12 0 1
BITMAP
FFFC
0200
FA00
E600
E260
02A0
4310
2010
2010
1010
0820
07C0
ENDCHAR
STARTCHAR C448
ENCODING 448
SWIDTH 624 0
DWIDTH 13 0
BBX 14 13 0 0
BITMAP
FFFC
0010
0010
1C10
5F20
5CC0
21C0
21E0
11D0
1010
0810
0420
03C0
ENDCHAR
STARTCHAR C449
ENCODING 449
SWIDTH 576 0
DWIDTH 12 0
BBX 13 15 0 -2
BITMAP
FFF8
0080
7080
7C80
7300
07C0
2820
2C20
2FC0
2380
13C0
1020
1020
0840
0780
ENDCHAR
STARTCHAR C450
ENCODING 450
SWIDTH 576 0
DWIDTH 12 0
BBX 13 15 0 -2
BITMAP
FFF8
0020
3C20
3A20
79C0
43C0
23A0
23A0
1020
0820
07C0
00C0
0340
00C0
0040
ENDCHAR
STARTCHAR C451
ENCODING 451
SWIDTH 624 0
DWIDTH 13 0
BBX 14 14 0 -1
BITMAP
FFFC
0010
1C10
1F20
1CC0
01E0
0210
2710
4710
4310
4010
2010
1FF0
0010
ENDCHAR
STARTCHAR C452
ENCODING 452
SWIDTH 576 0
DWIDTH 12 0
BBX 13 15 0 -2
BITMAP
FFF8
0080
7080
7C80
7300
07C0
0C20
0020
0020
0840
0780
0180
0040
0020
0010
ENDCHAR
STARTCHAR C453
ENCODING 453
SWIDTH 672 0
DWIDTH 14 0
BBX 15 13 0 0
BITMAP
FFFE
0300
0300
FB08
F718
F368
0388
0390
0110
0010
0010
0010
0008
ENDCHAR
STARTCHAR C454
ENCODING 454
SWIDTH 624 0
DWIDTH 13 0
BBX 14 13 0 0
BITMAP
FFFC
0080
7C80
7280
7180
70C0
01B0
0690
1C90
0290
0190
0090
0090
ENDCHAR
STARTCHAR C455
ENCODING 455
SWIDTH 528 0
DWIDTH 11 0
BBX 12 13 0 0
BITMAP
FFF0
0040
0040
7E40
7140
70C0
0040
0040
7E40
7140
70C0
0040
0040
ENDCHAR
STARTCHAR C456
ENCODING 456
SWIDTH 528 0
DWIDTH 11 0
BBX 12 13 0 0
BITMAP
FFF0
0040
0040
7C40
7340
70C0
0040
01C0
0640
0E40
0140
00C0
00C0
ENDCHAR
STARTCHAR C457
ENCODING 457
SWIDTH 624 0
DWIDTH 13 0
BBX 14 13 0 0
BITMAP
FFFC
0090
7C90
7290
7190
0090
0090
0090
03D0
03B0
0390
0010
0010
ENDCHAR
STARTCHAR C458
ENCODING 458
SWIDTH 720 0
DWIDTH 15 0
BBX 16 13 0 0
BITMAP
FFFF
0404
0204
0204
7D04
6364
0194
010C
1204
0C04
0004
0004
0004
ENDCHAR
STARTCHAR C459
ENCODING 459
SWIDTH 816 0
DWIDTH 17 0
BBX 17 19 1 0
BITMAP
100000
0C0000
03F000
000C00
000200
000200
01FF80
7D0000
C70000
290000
310000
010E00
010E00
010200
010400
010400
010800
011000
00E000
ENDCHAR
STARTCHAR C460
ENCODING 460
SWIDTH 624 0
DWIDTH 13 0
BBX 13 14 1 0
BITMAP
0040
3E78
C140
22C0
1440
9840
A040
43C0
43C0
23A0
2020
1020
0840
0780
ENDCHAR
STARTCHAR C461
ENCODING 461
SWIDTH 576 0
DWIDTH 12 0
BBX 12 14 1 0
BITMAP
0040
3C70
C340
A340
14C0
1840
3040
0040
0040
3E40
3940
38C0
0040
0040
ENDCHAR
STARTCHAR C462
ENCODING 462
SWIDTH 576 0
DWIDTH 12 0
BBX 12 15 1 -1
BITMAP
0040
3C70
C340
22C0
1C40
1040
2040
0040
3C40
4340
E340
14C0
1840
3040
0040
ENDCHAR
STARTCHAR C463
ENCODING 463
SWIDTH 576 0
DWIDTH 12 0
BBX 12 14 1 0
BITMAP
0040
3C70
C340
A340
14C0
1840
3040
0040
3B40
46C0
72C0
7040
7040
0040
ENDCHAR
STARTCHAR C464
ENCODING 464
SWIDTH 720 0
DWIDTH 15 0
BBX 16 13 0 0
BITMAP
FFFF
0404
0204
3E04
7704
1964
2194
010C
1204
0C04
0004
0004
0004
ENDCHAR
STARTCHAR C465
ENCODING 465
SWIDTH 672 0
DWIDTH 14 0
BBX 15 14 0 -1
BITMAP
FFFE
0800
0460
0450
0848
0848
0658
0158
00C0
3FC0
72C0
7040
3040
0040
ENDCHAR
STARTCHAR C466
ENCODING 466
SWIDTH 672 0
DWIDTH 14 0
BBX 15 13 0 0
BITMAP
FFFE
0C00
3608
65F8
9418
8D90
4650
4050
2050
1890
0710
0000
0008
ENDCHAR
STARTCHAR C467
ENCODING 467
SWIDTH 624 0
DWIDTH 13 0
BBX 14 13 0 0
BITMAP
FFFC
0200
0E00
3210
6230
1AD0
0690
0720
0220
0020
0020
0020
0010
ENDCHAR
STARTCHAR C468
ENCODING 468
SWIDTH 624 0
DWIDTH 13 0
BBX 14 13 0 0
BITMAP
FFFC
0180
0E80
3080
40E0
2390
1C90
1090
1890
0490
0290
0190
0090
ENDCHAR
STARTCHAR C469
ENCODING 469
SWIDTH 528 0
DWIDTH 11 0
BBX 12 13 0 0
BITMAP
FFF0
01C0
0E40
3040
4040
23C0
1C40
1040
3840
0640
0140
00C0
00C0
ENDCHAR
STARTCHAR C470
ENCODING 470
SWIDTH 528 0
DWIDTH 11 0
BBX 12 13 0 0
BITMAP
FFF0
00C0
0740
1840
3840
0640
0140
00C0
3F40
42C0
7040
3040
0040
ENDCHAR
STARTCHAR C471
ENCODING 471
SWIDTH 720 0
DWIDTH 15 0
BBX 16 13 0 0
BITMAP
FFFF
0000
0000
0018
2714
4764
4784
4004
4004
2004
1004
0FFC
0004
ENDCHAR
STARTCHAR C472
ENCODING 472
SWIDTH 576 0
DWIDTH 12 0
BBX 13 14 0 -1
BITMAP
FFF8
4E00
4EC0
2F20
2020
1020
0840
07C0
0040
3DC0
7240
7040
3040
0040
ENDCHAR
STARTCHAR C473
ENCODING 473
SWIDTH 576 0
DWIDTH 12 0
BBX 13 13 0 0
BITMAP
FFF8
1020
7020
7820
7660
01A0
0020
0020
3E20
39A0
3860
0020
0020
ENDCHAR
STARTCHAR C474
ENCODING 474
SWIDTH 1008 0
DWIDTH 21 0
BBX 22 14 0 0
BITMAP
000010
FF9F1C
10E090
70F0D0
788B30
770C10
000810
001010
000010
000010
000010
000010
000010
000010
ENDCHAR
STARTCHAR C475
ENCODING 475
SWIDTH 960 0
DWIDTH 20 0
BBX 21 13 0 0
BITMAP
FFFFF8
104000
704180
7C4140
73A120
002120
002160
004160
00E160
001900
000500
000300
000300
ENDCHAR
STARTCHAR C476
ENCODING 476
SWIDTH 576 0
DWIDTH 12 0
BBX 13 13 0 0
BITMAP
FFF8
1020
7020
7820
7640
01A0
00E0
0320
0C20
0320
00A0
0060
0060
ENDCHAR
STARTCHAR C477
ENCODING 477
SWIDTH 624 0
DWIDTH 13 0
BBX 14 13 0 0
BITMAP
FFFC
1020
3820
3C20
3220
01C0
4E60
4ED0
2F10
2010
1010
0820
07C0
ENDCHAR
STARTCHAR C478
ENCODING 478
SWIDTH 624 0
DWIDTH 13 0
BBX 14 13 0 0
BITMAP
FFFC
1020
3820
3C20
3220
01C0
0E20
2ED0
4F10
2010
2010
1FF0
0010
ENDCHAR
STARTCHAR C479
ENCODING 479
SWIDTH 720 0
DWIDTH 15 0
BBX 16 13 0 0
BITMAP
FFFF
1024
7024
7824
7644
01A4
0024
00E4
00F4
00EC
000C
0004
0004
ENDCHAR
STARTCHAR C480
ENCODING 480
SWIDTH 576 0
DWIDTH 12 0
BBX 13 13 0 0
BITMAP
FFF8
1020
7020
7820
7660
01A0
0020
1DA0
2260
3A60
3820
3820
0020
ENDCHAR
STARTCHAR C481
ENCODING 481
SWIDTH 624 0
DWIDTH 13 0
BBX 14 13 0 0
BITMAP
FFFC
0080
3B80
4580
7480
7080
73C0
0CA0
1890
04F0
02F0
0180
0080
ENDCHAR
STARTCHAR C482
ENCODING 482
SWIDTH 576 0
DWIDTH 12 0
BBX 13 13 0 0
BITMAP
FFF8
0020
3DA0
4260
7260
7020
3F20
10A0
2060
3C60
0220
0220
0420
ENDCHAR
STARTCHAR C483
ENCODING 483
SWIDTH 576 0
DWIDTH 12 0
BBX 13 15 0 -2
BITMAP
FFF8
0040
3FC0
42C0
7040
3040
0F40
3CE0
3220
22E0
14E0
10F0
0810
0410
03E0
ENDCHAR
STARTCHAR C484
ENCODING 484
SWIDTH 816 0
DWIDTH 17 0
BBX 18 19 0 0
BITMAP
080000
060000
01F800
000600
000100
000100
FFFFC0
008000
3A8000
458000
748000
708700
708700
008100
008200
008200
008400
008800
007000
ENDCHAR
STARTCHAR C485
ENCODING 485
SWIDTH 720 0
DWIDTH 15 0
BBX 16 12 0 1
BITMAP
FFFF
3B80
4480
7080
7098
00A8
10C4
0804
0804
0404
0208
01F0
ENDCHAR
STARTCHAR C486
ENCODING 486
SWIDTH 576 0
DWIDTH 12 0
BBX 13 13 0 0
BITMAP
FFF8
1C20
23A0
3A60
3820
3820
0020
1F20
70A0
0B60
0C20
0820
1020
ENDCHAR
STARTCHAR C487
ENCODING 487
SWIDTH 576 0
DWIDTH 12 0
BBX 13 13 0 0
BITMAP
FFF8
0020
0020
3DA0
4260
7220
7020
30E0
0320
0620
0120
00E0
0060
ENDCHAR
STARTCHAR C488
ENCODING 488
SWIDTH 720 0
DWIDTH 15 0
BBX 16 13 0 0
BITMAP
FFFF
0024
3DA4
4264
7264
7024
3024
0024
00E4
00F4
00EC
0004
0004
ENDCHAR
STARTCHAR C489
ENCODING 489
SWIDTH 624 0
DWIDTH 13 0
BBX 14 13 0 0
BITMAP
FFFC
0010
3CD0
4330
7130
7010
3010
3CD0
4330
7130
7010
3010
0010
ENDCHAR
STARTCHAR C490
ENCODING 490
SWIDTH 864 0
DWIDTH 18 0
BBX 19 14 0 0
BITMAP
004000
E77FE0
1CC000
1E6000
3F5000
3F4600
004180
004080
004100
004100
004200
004400
004800
003000
ENDCHAR
STARTCHAR C491
ENCODING 491
SWIDTH 864 0
DWIDTH 18 0
BBX 19 14 0 0
BITMAP
004000
F37FE0
0CC000
1E6000
3F5F00
3F4480
004880
007080
000300
001C00
000800
000400
000200
000100
ENDCHAR
STARTCHAR C492
ENCODING 492
SWIDTH 576 0
DWIDTH 12 0
BBX 13 14 0 0
BITMAP
0020
F338
0CA0
1E60
3F20
3F20
0020
0020
0020
1F20
1CA0
1C60
0020
0020
ENDCHAR
STARTCHAR C493
ENCODING 493
SWIDTH 720 0
DWIDTH 15 0
BBX 16 14 0 0
BITMAP
0020
F33F
0CA4
1E64
3F24
3F24
0024
0024
0024
00E4
00F4
00EC
0004
0004
ENDCHAR
STARTCHAR C494
ENCODING 494
SWIDTH 576 0
DWIDTH 12 0
BBX 13 14 0 0
BITMAP
0020
F338
0CA0
1E60
3F20
3F20
0020
0020
1DA0
2360
3960
3820
3820
0020
ENDCHAR
STARTCHAR C495
ENCODING 495
SWIDTH 576 0
DWIDTH 12 0
BBX 13 14 0 0
BITMAP
0020
F338
0CA0
1E60
3F20
3F20
0020
0020
00E0
0320
0620
0120
00E0
0060
ENDCHAR
STARTCHAR C496
ENCODING 496
SWIDTH 576 0
DWIDTH 12 0
BBX 13 13 0 0
BITMAP
FFF8
2100
4900
4700
4780
3D40
1120
7120
09E0
05E0
0300
0300
0100
ENDCHAR
STARTCHAR C497
ENCODING 497
SWIDTH 816 0
DWIDTH 17 0
BBX 18 14 0 -1
BITMAP
FFFFC0
308000
488000
450000
46E000
391000
021E00
239700
239700
201700
201000
101000
0FF000
001000
ENDCHAR
STARTCHAR C498
ENCODING 498
SWIDTH 528 0
DWIDTH 11 0
BBX 12 19 0 0
BITMAP
8000
6000
1E00
0180
0040
0040
FFF0
1880
3080
4880
4500
4600
3800
11C0
21C0
2040
2040
1080
0F00
ENDCHAR
STARTCHAR C499
ENCODING 499
SWIDTH 624 0
DWIDTH 13 0
BBX 14 19 0 1
BITMAP
0200
0200
0200
0200
0200
0200
0100
FFFC
1180
3140
4920
4710
4610
3A10
0410
1810
1020
0840
0780
ENDCHAR
STARTCHAR C500
ENCODING 500
SWIDTH 816 0
DWIDTH 17 0
BBX 16 13 0 0
BITMAP
FFCE
3051
0861
0441
0A46
11C6
2041
7061
0C51
024E
0140
00C0
0040
ENDCHAR
STARTCHAR C501
ENCODING 501
SWIDTH 864 0
DWIDTH 18 0
BBX 19 14 0 0
BITMAP
000080
FE78E0
328480
4BC680
4A2980
443080
382080
004080
000080
000080
000080
000080
000080
000080
ENDCHAR
STARTCHAR C502
ENCODING 502
SWIDTH 816 0
DWIDTH 17 0
BBX 18 13 0 0
BITMAP
FFFFC0
210000
510C00
4B0A00
448900
388900
010B00
010B00
030B00
00C800
002800
001800
000800
ENDCHAR
STARTCHAR C503
ENCODING 503
SWIDTH 576 0
DWIDTH 12 0
BBX 13 13 0 0
BITMAP
FFF8
2120
4920
4620
4620
3A20
0220
0F20
0EA0
0E60
0060
0020
0020
ENDCHAR
STARTCHAR C504
ENCODING 504
SWIDTH 768 0
DWIDTH 16 0
BBX 17 13 0 0
BITMAP
FFFF80
060800
050800
488800
307000
003800
00D400
031200
021200
019E00
005E00
003000
001000
ENDCHAR
STARTCHAR C505
ENCODING 505
SWIDTH 816 0
DWIDTH 17 0
BBX 18 14 0 -1
BITMAP
FFFFC0
061000
0A1000
491000
30E000
011000
021E00
139700
239700
239700
201000
101000
0FF000
001000
ENDCHAR
STARTCHAR C506
ENCODING 506
SWIDTH 768 0
DWIDTH 16 0
BBX 17 16 0 -3
BITMAP
FFFF80
060800
050800
488800
307000
003800
00D400
031200
031E00
00DE00
0E3000
11F000
1C9000
1C1000
0C1000
001000
ENDCHAR
STARTCHAR C507
ENCODING 507
SWIDTH 816 0
DWIDTH 17 0
BBX 18 14 0 0
BITMAP
000100
FFC1C0
0C2100
0C2100
4A2100
31E100
003100
03C900
038900
001100
006100
007100
000D00
000300
ENDCHAR
STARTCHAR C508
ENCODING 508
SWIDTH 816 0
DWIDTH 17 0
BBX 18 19 0 0
BITMAP
080000
060000
01F800
000600
000100
000100
FFFFC0
084000
044000
044000
074000
04C700
484700
304100
004200
004200
004400
004800
003000
ENDCHAR
STARTCHAR C509
ENCODING 509
SWIDTH 672 0
DWIDTH 14 0
BBX 15 13 0 0
BITMAP
FFFE
0208
0508
0488
7870
21E0
21F0
11E8
1008
0808
0408
0210
01E0
ENDCHAR
STARTCHAR C510
ENCODING 510
SWIDTH 576 0
DWIDTH 12 0
BBX 13 15 0 -2
BITMAP
FFF8
0C20
0C20
0A20
71C0
07C0
2820
2C20
2FC0
2380
13C0
1020
1020
0840
0780
ENDCHAR
STARTCHAR C511
ENCODING 511
SWIDTH 624 0
DWIDTH 13 0
BBX 14 14 0 -1
BITMAP
FFFC
0610
0A10
4910
31E0
0210
0410
2710
4710
4310
4010
2010
1FF0
0010
ENDCHAR
ENDFONT
